<svg xmlns="http://www.w3.org/2000/svg" viewBox="0 0 960 420" role="img" aria-labelledby="title desc">
  <title id="title">Authentic Cabinetry Heritage Monogram Logo Concept</title>
  <desc id="desc">Premium green and copper monogram logo with an A and C inspired by cabinet joinery.</desc>
  <rect width="960" height="420" fill="#fbf7ef"/>
  <g transform="translate(92 70)">
    <rect width="280" height="280" rx="28" fill="#173f2f"/>
    <path d="M68 214 137 66h31l69 148h-34l-13-30h-76l-13 30H68Zm59-59h50l-25-58-25 58Z" fill="#fffaf0"/>
    <path d="M206 104c-15-16-35-25-58-25-48 0-78 34-78 76s31 77 78 77c25 0 46-9 61-27" fill="none" stroke="#fffaf0" stroke-width="18" stroke-linecap="round"/>
    <path d="M82 238h116" stroke="#c96f39" stroke-width="8" stroke-linecap="square"/>
  </g>
  <g transform="translate(430 124)" fill="#173f2f">
    <text x="0" y="52" font-family="Georgia, 'Times New Roman', serif" font-size="54" letter-spacing="1.5">Authentic</text>
    <text x="0" y="110" font-family="Georgia, 'Times New Roman', serif" font-size="54" letter-spacing="1.5">Cabinetry</text>
    <path d="M0 142h314" stroke="#c96f39" stroke-width="5"/>
    <text x="0" y="178" font-family="Arial, Helvetica, sans-serif" font-size="18" letter-spacing="4" fill="#5b635a">CUSTOM CABINETRY &amp; MILLWORK</text>
  </g>
</svg>
